<svg width="14" height="18" viewBox="0 0 14 18" fill="none" xmlns="http://www.w3.org/2000/svg">
<path d="M6.66667 13.3333C7.10869 13.3333 7.53262 13.1577 7.84518 12.8452C8.15774 12.5326 8.33333 12.1087 8.33333 11.6667C8.33333 11.2246 8.15774 10.8007 7.84518 10.4882C7.53262 10.1756 7.10869 10 6.66667 10C6.22464 10 5.80072 10.1756 5.48816 10.4882C5.17559 10.8007 5 11.2246 5 11.6667C5 12.1087 5.17559 12.5326 5.48816 12.8452C5.80072 13.1577 6.22464 13.3333 6.66667 13.3333ZM11.6667 5.83333C12.1087 5.83333 12.5326 6.00893 12.8452 6.32149C13.1577 6.63405 13.3333 7.05797 13.3333 7.5V15.8333C13.3333 16.2754 13.1577 16.6993 12.8452 17.0118C12.5326 17.3244 12.1087 17.5 11.6667 17.5H1.66667C1.22464 17.5 0.800716 17.3244 0.488155 17.0118C0.175595 16.6993 0 16.2754 0 15.8333V7.5C0 7.05797 0.175595 6.63405 0.488155 6.32149C0.800716 6.00893 1.22464 5.83333 1.66667 5.83333H2.5V4.16667C2.5 3.0616 2.93899 2.00179 3.72039 1.22039C4.50179 0.438987 5.5616 0 6.66667 0C7.21384 0 7.75566 0.107774 8.26118 0.317169C8.7667 0.526563 9.22603 0.833478 9.61294 1.22039C9.99986 1.6073 10.3068 2.06663 10.5162 2.57215C10.7256 3.07768 10.8333 3.61949 10.8333 4.16667V5.83333H11.6667ZM6.66667 1.66667C6.00363 1.66667 5.36774 1.93006 4.8989 2.3989C4.43006 2.86774 4.16667 3.50363 4.16667 4.16667V5.83333H9.16667V4.16667C9.16667 3.50363 8.90327 2.86774 8.43443 2.3989C7.96559 1.93006 7.32971 1.66667 6.66667 1.66667Z" fill="#060606" fill-opacity="0.5"/>
</svg>
