<svg width="50" height="40" viewBox="0 0 50 40" fill="none" xmlns="http://www.w3.org/2000/svg">
<path d="M45.4281 16.7358H43.75V16.6666H25V23.3332H36.774C35.0563 27.2141 30.4406 29.9999 25 29.9999C18.0969 29.9999 12.5 25.5224 12.5 19.9999C12.5 14.4774 18.0969 9.99992 25 9.99992C28.1865 9.99992 31.0854 10.9616 33.2927 12.5324L39.1854 7.81825C35.4646 5.04409 30.4875 3.33325 25 3.33325C13.4948 3.33325 4.16666 10.7958 4.16666 19.9999C4.16666 29.2041 13.4948 36.6666 25 36.6666C36.5052 36.6666 45.8333 29.2041 45.8333 19.9999C45.8333 18.8824 45.6896 17.7916 45.4281 16.7358Z" fill="#FFC107"/>
<path d="M6.56875 12.2424L13.4135 16.2583C15.2656 12.5899 19.751 9.99992 25 9.99992C28.1865 9.99992 31.0854 10.9616 33.2927 12.5324L39.1854 7.81825C35.4646 5.04409 30.4875 3.33325 25 3.33325C16.9979 3.33325 10.0583 6.94742 6.56875 12.2424Z" fill="#FF3D00"/>
<path d="M25 36.6668C30.3812 36.6668 35.2708 35.0193 38.9677 32.3401L32.5198 27.9751C30.3579 29.2904 27.7161 30.0018 25 30.0001C19.5812 30.0001 14.9802 27.2359 13.2469 23.3784L6.45312 27.5659C9.90104 32.9634 16.9031 36.6668 25 36.6668Z" fill="#4CAF50"/>
<path d="M45.4281 16.7359H43.75V16.6667H25V23.3334H36.774C35.9523 25.1804 34.4722 26.7944 32.5167 27.9759L32.5198 27.9742L38.9677 32.3392C38.5115 32.6709 45.8333 28.3334 45.8333 20.0001C45.8333 18.8826 45.6896 17.7917 45.4281 16.7359Z" fill="#1976D2"/>
</svg>
