<svg width="36" height="40" viewBox="0 0 36 40" fill="none" xmlns="http://www.w3.org/2000/svg">
<path d="M32.9382 34.9977C31.0966 37.4775 29.1442 39.8973 26.1711 39.9373C23.198 39.9973 22.244 38.3575 18.8715 38.3575C15.4769 38.3575 14.4341 39.8973 11.6163 39.9973C8.70978 40.0973 6.51325 37.3575 4.64952 34.9377C0.855515 29.998 -2.051 20.8986 1.85394 14.779C3.78422 11.7392 7.24542 9.81935 10.9951 9.75935C13.835 9.71935 16.5418 11.4992 18.2946 11.4992C20.0252 11.4992 23.3089 9.35938 26.748 9.67936C28.1901 9.73935 32.2282 10.1993 34.8241 13.6391C34.6244 13.7591 30.0095 16.1989 30.0538 21.2586C30.1204 27.2982 35.9334 29.3181 36 29.3381C35.9334 29.478 35.0681 32.2179 32.9382 34.9977ZM20.2693 2.9998C21.889 1.33991 24.5736 0.0799947 26.7923 0C27.0808 2.33984 26.038 4.69969 24.4849 6.37958C22.9539 8.07946 20.4246 9.39938 17.9396 9.21939C17.6068 6.91954 18.8493 4.5197 20.2693 2.9998Z" fill="white"/>
</svg>
